<svg width="29" height="29" viewBox="0 0 29 29" fill="none" xmlns="http://www.w3.org/2000/svg">
<path d="M19.2 12L21.78 12.774C23.4276 13.2684 24.252 13.5156 24.726 14.154C25.2 14.79 25.2 15.6516 25.2 17.3712V26.4" stroke="#0F172A" stroke-width="1.5" stroke-linejoin="round"/>
<path d="M9.59999 10.8H13.2M9.59999 15.6H13.2" stroke="#0F172A" stroke-width="1.5" stroke-linecap="round" stroke-linejoin="round"/>
<path d="M14.4 26.4001V22.8001C14.4 21.6685 14.4 21.1033 14.0484 20.7517C13.6968 20.4001 13.1316 20.4001 12 20.4001H10.8C9.66839 20.4001 9.10319 20.4001 8.75159 20.7517C8.39999 21.1033 8.39999 21.6685 8.39999 22.8001V26.4001" stroke="#0F172A" stroke-width="1.5" stroke-linejoin="round"/>
<path d="M2.39999 26.4001H26.4" stroke="#0F172A" stroke-width="1.5" stroke-linecap="round"/>
<path d="M3.59999 26.4V8.06043C3.59999 5.04843 3.59999 3.54123 4.54919 2.79363C5.49839 2.04603 6.89639 2.45283 9.69359 3.26403L15.6936 5.00523C17.3808 5.49483 18.2244 5.73963 18.7116 6.40803C19.2 7.07523 19.2 7.98363 19.2 9.80283V26.4" stroke="#0F172A" stroke-width="1.5" stroke-linecap="round" stroke-linejoin="round"/>
</svg>
