<svg width="29" height="29" viewBox="0 0 29 29" fill="none" xmlns="http://www.w3.org/2000/svg">
<path d="M3.93002 18.3552C2.91002 17.0304 2.40002 16.3668 2.40002 14.4C2.40002 12.432 2.91002 11.7708 3.93002 10.4448C5.96642 7.80005 9.38162 4.80005 14.4 4.80005C19.4184 4.80005 22.8336 7.80005 24.87 10.4448C25.89 11.772 26.4 12.4332 26.4 14.4C26.4 16.368 25.89 17.0292 24.87 18.3552C22.8336 21 19.4184 24 14.4 24C9.38162 24 5.96642 21 3.93002 18.3552Z" stroke="#0F172A" stroke-width="1.5"/>
<path d="M18 14.4C18 15.3548 17.6208 16.2705 16.9456 16.9456C16.2705 17.6208 15.3548 18 14.4 18C13.4453 18 12.5296 17.6208 11.8545 16.9456C11.1793 16.2705 10.8 15.3548 10.8 14.4C10.8 13.4453 11.1793 12.5296 11.8545 11.8545C12.5296 11.1793 13.4453 10.8 14.4 10.8C15.3548 10.8 16.2705 11.1793 16.9456 11.8545C17.6208 12.5296 18 13.4453 18 14.4Z" stroke="#0F172A" stroke-width="1.5"/>
</svg>
