<svg width="29" height="29" viewBox="0 0 29 29" fill="none" xmlns="http://www.w3.org/2000/svg">
<path d="M14.4 20.7C16.0708 20.7 17.6733 20.0362 18.8547 18.8547C20.0362 17.6733 20.7 16.0708 20.7 14.4C20.7 12.7291 20.0362 11.1267 18.8547 9.9452C17.6733 8.76372 16.0708 8.09998 14.4 8.09998C12.7291 8.09998 11.1267 8.76372 9.9452 9.9452C8.76372 11.1267 8.09998 12.7291 8.09998 14.4C8.09998 16.0708 8.76372 17.6733 9.9452 18.8547C11.1267 20.0362 12.7291 20.7 14.4 20.7Z" stroke="#0F172A" stroke-width="1.5" stroke-linecap="round" stroke-linejoin="round"/>
<path d="M14.4 16.2C14.8774 16.2 15.3352 16.0103 15.6728 15.6728C16.0103 15.3352 16.2 14.8774 16.2 14.4C16.2 13.9226 16.0103 13.4647 15.6728 13.1272C15.3352 12.7896 14.8774 12.6 14.4 12.6C13.9226 12.6 13.4647 12.7896 13.1272 13.1272C12.7896 13.4647 12.6 13.9226 12.6 14.4C12.6 14.8774 12.7896 15.3352 13.1272 15.6728C13.4647 16.0103 13.9226 16.2 14.4 16.2Z" stroke="#0F172A" stroke-width="1.5" stroke-linecap="round" stroke-linejoin="round"/>
<path d="M25.2 14.4C25.2 15.8183 24.9206 17.2226 24.3779 18.533C23.8351 19.8433 23.0396 21.0339 22.0367 22.0367C21.0339 23.0396 19.8433 23.8351 18.533 24.3779C17.2226 24.9206 15.8183 25.2 14.4 25.2C12.9817 25.2 11.5773 24.9206 10.267 24.3779C8.95668 23.8351 7.76609 23.0396 6.76322 22.0367C5.76035 21.0339 4.96483 19.8433 4.42208 18.533C3.87933 17.2226 3.59998 15.8183 3.59998 14.4C3.59998 11.5356 4.73783 8.78861 6.76322 6.76322C8.78861 4.73783 11.5356 3.59998 14.4 3.59998C17.2643 3.59998 20.0113 4.73783 22.0367 6.76322C24.0621 8.78861 25.2 11.5356 25.2 14.4Z" stroke="#0F172A" stroke-width="1.5" stroke-linecap="round" stroke-linejoin="round"/>
</svg>
